<?xml version="1.0" encoding="UTF-8" standalone="no"?>
<svg
   xmlns:dc="http://purl.org/dc/elements/1.1/"
   xmlns:cc="http://creativecommons.org/ns#"
   xmlns:rdf="http://www.w3.org/1999/02/22-rdf-syntax-ns#"
   xmlns:svg="http://www.w3.org/2000/svg"
   xmlns="http://www.w3.org/2000/svg"
   xmlns:sodipodi="http://sodipodi.sourceforge.net/DTD/sodipodi-0.dtd"
   xmlns:inkscape="http://www.inkscape.org/namespaces/inkscape"
   id="svg4"
   version="1.1"
   height="18"
   width="18"
   sodipodi:docname="edit.svg"
   inkscape:version="0.92.2 (5c3e80d, 2017-08-06)">
  <sodipodi:namedview
     pagecolor="#ffffff"
     bordercolor="#666666"
     borderopacity="1"
     objecttolerance="10"
     gridtolerance="10"
     guidetolerance="10"
     inkscape:pageopacity="0"
     inkscape:pageshadow="2"
     inkscape:window-width="1920"
     inkscape:window-height="1025"
     id="namedview9"
     showgrid="false"
     inkscape:zoom="13.111111"
     inkscape:cx="11.822034"
     inkscape:cy="9"
     inkscape:window-x="0"
     inkscape:window-y="27"
     inkscape:window-maximized="1"
     inkscape:current-layer="text823" />
  <metadata
     id="metadata10">
    <rdf:RDF>
      <cc:Work
         rdf:about="">
        <dc:format>image/svg+xml</dc:format>
        <dc:type
           rdf:resource="http://purl.org/dc/dcmitype/StillImage" />
        <dc:title></dc:title>
      </cc:Work>
    </rdf:RDF>
  </metadata>
  <defs
     id="defs8" />
  <text
     id="text819"
     y="0.71483463"
     x="7.9819174"
     style="font-style:normal;font-variant:normal;font-weight:normal;font-stretch:normal;font-size:40px;line-height:125%;font-family:FontAwesome;-inkscape-font-specification:FontAwesome;letter-spacing:0px;word-spacing:0px;fill:#000000;fill-opacity:1;stroke:none;stroke-width:1px;stroke-linecap:butt;stroke-linejoin:miter;stroke-opacity:1"
     xml:space="preserve"><tspan
       y="40.000549"
       x="7.9819174"
       id="tspan817" /></text>
  <g
     id="text823"
     style="font-style:normal;font-variant:normal;font-weight:normal;font-stretch:normal;font-size:15.96831703px;line-height:125%;font-family:FontAwesome;-inkscape-font-specification:FontAwesome;letter-spacing:0px;word-spacing:0px;fill:#505050;fill-opacity:0.49803922;stroke:none;stroke-width:0.39920792px;stroke-linecap:butt;stroke-linejoin:miter;stroke-opacity:1"
     aria-label="ï€"
     transform="matrix(0.88888889,0,0,0.88888889,0.99999999,0.99999937)">
    <path
       id="path825"
       style="fill:#505050;fill-opacity:0.23529412;stroke-width:0.39920792px"
       d="M 5.4846535,14.609406 H 4.5311881 v -1.140594 h -1.140594 v -0.953465 l 0.8108911,-0.810891 2.0940594,2.094059 z M 10.14505,6.3400994 c 0,0.053465 -0.01782,0.1069307 -0.06238,0.1514852 L 5.2529703,11.321288 c -0.044554,0.04455 -0.09802,0.06238 -0.1514851,0.06238 -0.1158416,0 -0.1960396,-0.0802 -0.1960396,-0.19604 0,-0.05346 0.017822,-0.10693 0.062376,-0.151485 l 4.829703,-4.8297029 c 0.044555,-0.044555 0.09802,-0.062376 0.1514852,-0.062376 0.1158422,0 0.1960402,0.080198 0.1960402,0.1960396 z M 9.6638615,4.6292083 2.25,12.04307 v 3.706931 H 5.9569307 L 13.370792,8.3361391 Z M 15.75,5.4846539 c 0,-0.3029703 -0.124752,-0.5970297 -0.329703,-0.8108911 L 13.326238,2.5886142 C 13.112376,2.3747529 12.818317,2.2500004 12.515347,2.2500004 c -0.302971,0 -0.59703,0.1247525 -0.801981,0.3386138 l -1.479207,1.4702971 3.70693,3.7069307 1.479208,-1.4792079 C 15.625248,6.0816836 15.75,5.7876242 15.75,5.4846539 Z"
       inkscape:connector-curvature="0" />
  </g>
</svg>
